<?xml version="1.0" encoding="utf-8"?>
<!-- Generator: Adobe Illustrator 19.0.0, SVG Export Plug-In . SVG Version: 6.00 Build 0)  -->
<svg version="1.1" id="Layer_1" xmlns="http://www.w3.org/2000/svg" xmlns:xlink="http://www.w3.org/1999/xlink" x="0px" y="0px"
	 viewBox="0 0 595 595" xml:space="preserve">
<style type="text/css">
	.st0{fill:#FF6347;}
</style>
<g id="XMLID_1_">
	<g id="XMLID_32_">
		<path id="XMLID_53_" class="st0" d="M-36.7,12.6c242.3,0,484.6,0,726.9,0c0,212.8,0,425.6,0,638.4c-242.3,0-484.6,0-726.9,0
			C-36.7,438.1-36.7,225.4-36.7,12.6z M8.3,70.9C104.4,237.2,199.8,402.6,296,569.1c96.3-166.8,191.7-332,287.6-498.2
			C391.4,70.9,200.5,70.9,8.3,70.9z"/>
		<path id="XMLID_42_" d="M8.3,70.9c192.2,0,383.1,0,575.3,0C487.7,237,392.2,402.3,296,569.1C199.8,402.6,104.4,237.2,8.3,70.9z
			 M424,316.7c-6.6-3.8-12.3-7.1-17.9-10.4c-34.1-19.8-68.3-39.4-102.3-59.5c-5.6-3.3-9.6-3.6-15.4-0.1
			c-33.4,19.7-67.1,38.9-100.7,58.3c-6.5,3.7-12.9,7.5-20.2,11.7c2.1,1.5,3.4,2.6,4.8,3.5c39.9,23.1,79.9,46.3,119.9,69.2
			c1.7,1,5,1.1,6.7,0.1c40.6-23.2,81.2-46.7,121.7-70.1C421.5,318.9,422.4,318,424,316.7z M290.3,85c-9.2,5.3-17.3,9.8-25.3,14.5
			c-32.8,18.9-65.5,37.8-98.3,56.6c-3.2,1.8-5.2,3.8-5.2,7.9c0.2,46.1,0.1,92.1,0.2,138.2c0,1.6,0.5,3.3,0.7,5
			c1.2-0.4,1.7-0.4,2.1-0.6c20.6-11.8,41.2-23.6,61.7-35.5c19.7-11.4,39.3-23,59.1-34.2c4-2.2,5.4-4.7,5.4-9.3
			c-0.1-45.4,0-90.8,0-136.2C290.8,89.8,290.5,88,290.3,85z M429.7,308.1c0-3.2,0-5.1,0-6.9c0-45-0.1-90.1,0.1-135.1
			c0-5.2-1.7-7.9-6.1-10.3c-15-8.3-29.8-17-44.7-25.6c-22.9-13.3-45.9-26.6-68.8-39.8c-2.7-1.6-5.6-3-9.4-5c0,3.2,0,5.1,0,7
			c0,45.4,0.1,90.7,0,136.1c0,4.2,1.4,6.5,5,8.5c35,20.1,70,40.4,105,60.6C416.7,300.8,422.6,304.1,429.7,308.1z M553.6,82.5
			c-0.1-0.4-0.2-0.8-0.4-1.2c-78.6,0-157.3,0-237.3,0c1.7,1.4,2.2,1.9,2.8,2.3c37.9,21.9,75.7,43.8,113.7,65.4c1.7,1,5.2,0.6,7-0.5
			c34.2-19.6,68.4-39.4,102.5-59.2C545.9,87.1,549.7,84.7,553.6,82.5z M420.3,333.3c-0.4-0.4-0.9-0.8-1.3-1.1
			c-9.9,5.7-19.7,11.3-29.6,17c-26.9,15.6-53.7,31.3-80.8,46.6c-5.7,3.2-7.8,6.5-7.8,13.3c0.4,41.1,0.1,82.2,0.1,123.3
			c0,1.4,0.4,2.9,0.5,4.3c0.5,0.1,0.9,0.1,1.4,0.2C342,469,381.2,401.2,420.3,333.3z M559,93.2c-0.3-0.3-0.5-0.6-0.8-0.9
			c-1.3,0.5-2.6,0.9-3.8,1.5c-36.7,21.1-73.4,42.4-110.1,63.5c-3.2,1.8-4.5,4-4.5,7.8c0.1,41.3,0,82.6,0,123.9c0,2.3,0,4.7,0,7
			c0.6,0.2,1.2,0.3,1.8,0.5C480.7,228.7,519.8,160.9,559,93.2z M149.5,295.2c0.7-0.2,1.3-0.4,2-0.6c0-3.4,0-6.7,0-10.1
			c0-40,0-79.9,0.1-119.9c0-3.3,0-6.2-3.7-8.3c-19.8-11.2-39.5-22.6-59.2-34c-15.7-9.1-31.2-18.5-46.9-27.7c-2.8-1.6-6-2.6-9-3.9
			c-0.3,0.3-0.6,0.6-0.9,1C71.2,159.5,110.3,227.3,149.5,295.2z M274.1,82.6c-0.1-0.4-0.3-0.9-0.4-1.3c-77.8,0-155.5,0-233.3,0
			c0.7,1.7,1.5,2.4,2.5,2.9c37,21.4,74,42.7,110.9,64.1c3,1.7,5,1,7.6-0.5c31-18,62-35.9,93-53.8C260.9,90.2,267.5,86.4,274.1,82.6z
			 M288.9,536.5c0.4-0.1,0.8-0.1,1.2-0.2c0.2-1,0.6-2.1,0.6-3.1c0-42.9,0-85.9-0.2-128.8c0-2-1.6-4.8-3.3-5.8
			c-37-21.6-74.2-43-111.3-64.4c-1-0.6-2.2-0.7-4.8-1.5C210.9,401.5,249.9,469,288.9,536.5z"  stroke="#ffffff" fill="#ffffff"/>
		<path id="XMLID_41_" class="st0" d="M424,316.7c-1.6,1.3-2.4,2.2-3.5,2.8c-40.5,23.4-81.1,46.8-121.7,70.1c-1.7,1-4.9,0.9-6.7-0.1
			c-40-23-80-46.1-119.9-69.2c-1.5-0.8-2.7-2-4.8-3.5c7.3-4.2,13.7-8,20.2-11.7c33.6-19.4,67.3-38.6,100.7-58.3
			c5.8-3.4,9.9-3.1,15.4,0.1c34,20,68.2,39.7,102.3,59.5C411.7,309.6,417.4,312.9,424,316.7z"/>
		<path id="XMLID_40_" class="st0" d="M290.3,85c0.2,3,0.5,4.7,0.5,6.5c0,45.4-0.1,90.8,0,136.2c0,4.5-1.5,7-5.4,9.3
			c-19.8,11.2-39.4,22.8-59.1,34.2c-20.5,11.9-41.1,23.7-61.7,35.5c-0.4,0.2-0.9,0.3-2.1,0.6c-0.3-1.8-0.7-3.4-0.7-5
			c-0.1-46.1-0.1-92.1-0.2-138.2c0-4.1,2-6.1,5.2-7.9c32.8-18.8,65.5-37.8,98.3-56.6C273,94.9,281.1,90.3,290.3,85z"/>
		<path id="XMLID_39_" class="st0" d="M429.7,308.1c-7.1-4.1-13-7.4-18.9-10.8c-35-20.2-69.9-40.5-105-60.6c-3.5-2-5-4.3-5-8.5
			c0.1-45.4,0-90.7,0-136.1c0-1.9,0-3.8,0-7c3.9,2.1,6.7,3.5,9.4,5c22.9,13.3,45.9,26.6,68.8,39.8c14.9,8.6,29.7,17.3,44.7,25.6
			c4.4,2.4,6.1,5.1,6.1,10.3c-0.2,45-0.1,90.1-0.1,135.1C429.7,303.1,429.7,304.9,429.7,308.1z"/>
		<path id="XMLID_38_" class="st0" d="M553.6,82.5c-3.9,2.3-7.7,4.6-11.6,6.9c-34.1,19.8-68.3,39.6-102.5,59.2
			c-1.9,1.1-5.3,1.5-7,0.5c-38-21.7-75.8-43.6-113.7-65.4c-0.6-0.4-1.2-0.9-2.8-2.3c80,0,158.6,0,237.3,0
			C553.4,81.6,553.5,82,553.6,82.5z"/>
		<path id="XMLID_37_" class="st0" d="M420.3,333.3C381.2,401.2,342,469,302.9,536.8c-0.5-0.1-0.9-0.1-1.4-0.2
			c-0.2-1.4-0.5-2.9-0.5-4.3c0-41.1,0.3-82.2-0.1-123.3c-0.1-6.8,2.1-10.1,7.8-13.3c27.1-15.2,53.9-31,80.8-46.6
			c9.8-5.7,19.7-11.3,29.6-17C419.4,332.6,419.9,332.9,420.3,333.3z"/>
		<path id="XMLID_36_" class="st0" d="M559,93.2c-39.1,67.8-78.3,135.6-117.4,203.3c-0.6-0.2-1.2-0.3-1.8-0.5c0-2.3,0-4.7,0-7
			c0-41.3,0.1-82.6,0-123.9c0-3.8,1.3-6,4.5-7.8c36.7-21.1,73.4-42.3,110.1-63.5c1.2-0.7,2.5-1,3.8-1.5
			C558.5,92.6,558.7,92.9,559,93.2z"/>
		<path id="XMLID_35_" class="st0" d="M149.5,295.2C110.3,227.3,71.2,159.5,32,91.6c0.3-0.3,0.6-0.6,0.9-1c3,1.3,6.2,2.3,9,3.9
			c15.7,9.2,31.2,18.6,46.9,27.7c19.7,11.5,39.4,22.8,59.2,34c3.7,2.1,3.7,5,3.7,8.3c0,40,0,79.9-0.1,119.9c0,3.4,0,6.7,0,10.1
			C150.8,294.8,150.2,295,149.5,295.2z"/>
		<path id="XMLID_34_" class="st0" d="M274.1,82.6c-6.6,3.8-13.2,7.6-19.8,11.4c-31,17.9-62,35.8-93,53.8c-2.5,1.5-4.6,2.2-7.6,0.5
			c-36.9-21.5-73.9-42.8-110.9-64.1c-0.9-0.5-1.8-1.2-2.5-2.9c77.8,0,155.5,0,233.3,0C273.9,81.7,274,82.2,274.1,82.6z"/>
		<path id="XMLID_33_" class="st0" d="M288.9,536.5c-39-67.5-78-135-117.7-203.9c2.6,0.8,3.8,1,4.8,1.5
			c37.2,21.4,74.3,42.8,111.3,64.4c1.7,1,3.3,3.8,3.3,5.8c0.2,42.9,0.2,85.9,0.2,128.8c0,1-0.4,2.1-0.6,3.1
			C289.7,536.4,289.3,536.4,288.9,536.5z"/>
	</g>
</g>
</svg>
