<?xml version="1.0" encoding="utf-8"?>
<!-- Generator: Adobe Illustrator 19.0.0, SVG Export Plug-In . SVG Version: 6.00 Build 0)  -->
<svg version="1.1" id="Layer_1" xmlns="http://www.w3.org/2000/svg" xmlns:xlink="http://www.w3.org/1999/xlink" x="0px" y="0px"
	 viewBox="0 0 55 55" style="enable-background:new 0 0 55 55;" xml:space="preserve">
<style type="text/css">
	.st0{fill:#FFFFFF;}
</style>
<g id="_x33_RD4Ia.tif">
	<g id="XMLID_1_">
		<path id="XMLID_43_" d="M31.7,40.3c0,0.2-0.1,0.4-0.1,0.5c0,2.9,0,5.7,0,8.6c0,0.7,0.1,1.3,0.6,1.8c0.2,0.3,0.1,0.6-0.2,0.5
			c-1.1-0.1-2.3-0.2-3.1-1.1c-0.3-0.3-0.6-0.8-0.6-1.2c-0.2-1.3-0.2-2.7-0.3-4c0-1.6,0-3.3,0-4.9c0-0.2,0-0.4-0.1-0.6
			c-0.1,0-0.1,0-0.2,0c0,0.2-0.1,0.3-0.1,0.5c0,1.3-0.1,2.6-0.1,3.9c0,1.7-0.1,3.4-0.1,5.1c0,1.2-0.5,1.5-1.5,1.8
			c-0.7,0.2-1.5,0.3-2.2,0.5c-0.1,0-0.4,0-0.4-0.2c-0.1-0.1,0-0.3,0.1-0.5c0.1-0.4,0.4-0.7,0.4-1.1c0.1-0.5,0.1-1,0.1-1.6
			c0-2.4,0-4.9,0-7.3c0-0.3,0-0.5-0.1-0.8c-0.1,0-0.1,0-0.2,0c-0.1,0.2-0.2,0.4-0.2,0.5c0,1.1-0.1,2.1-0.1,3.2c0,1.4,0,2.9,0,4.3
			c0,1.7-0.9,2.7-2.6,3c-0.4,0.1-0.9,0.2-1.3,0.2c-0.4,0-0.5-0.1-0.3-0.4c0.6-0.8,0.7-1.7,0.7-2.7c0-1.6,0-3.2,0.1-4.7
			c0-0.5-0.1-0.5-0.6-0.6c-1-0.1-1.9-0.2-2.9-0.2c-2.3,0-4-1.2-5.2-3.1c-0.8-1.2-1.5-2.5-2.4-3.7c-0.5-0.7-1.2-1.3-1.7-1.9
			c-0.1-0.1-0.2-0.3-0.2-0.4c0.2,0,0.3-0.1,0.5-0.1c1.6,0.1,2.8,1,3.9,1.9c0.8,0.7,1.7,1.4,2.5,2.1c0.7,0.5,1.5,0.8,2.4,0.8
			c1.1,0,2.1,0,3.2,0c0.3,0,0.5-0.1,0.6-0.4c0.2-1.1,0.8-2,1.6-2.8c0.1-0.1,0.2-0.3,0.3-0.4c-0.2-0.1-0.3-0.2-0.5-0.2
			c-1.6-0.2-3.2-0.7-4.8-1.3c-2.7-1-4.9-2.7-6.6-5.1c-0.2-0.4-0.5-0.5-1-0.5c-2.5,0-4.9,0.3-7.3,0.7c-0.2,0-0.5,0-0.7,0
			c-0.1,0-0.2-0.1-0.3-0.2c0.1-0.1,0.2-0.2,0.3-0.3C1.3,28.1,1.6,28,2,27.9c1.7-0.2,3.5-0.4,5.2-0.6c0.4,0,0.8-0.1,1.2-0.1
			c0.1,0,0.3-0.1,0.5-0.1c-0.3-0.4-0.6-0.4-0.9-0.4c-1-0.1-1.9-0.1-2.9-0.1c-1.4,0-2.7,0.1-4.1,0.1c-0.2,0-0.5,0-0.7,0
			c-0.1,0-0.3-0.2-0.4-0.3c0.1-0.1,0.2-0.2,0.4-0.2c0.8-0.1,1.6-0.2,2.5-0.3c1.7,0,3.4,0,5.1,0c0.6,0,0.7-0.1,0.5-0.7
			c-0.6-2.7-0.8-5.4-0.3-8.1c0.4-1.8,1.2-3.5,2.4-5c0.4-0.5,0.5-0.9,0.4-1.6c-0.3-1.7-0.2-3.4,0-5.1c0.1-0.4,0.1-0.9,0.2-1.3
			c0.2-0.8,0.5-1,1.3-0.9c2.4,0.3,4.6,1.2,6.7,2.4c0.7,0.4,1.4,0.5,2.2,0.4c1.5-0.2,2.9-0.4,4.4-0.4c1.9,0,3.9,0.1,5.9,0.2
			c0.6,0,1.2,0.2,1.9,0.3c0.4,0.1,0.7,0,1.1-0.2c1.5-1,3.2-1.7,5-2.2c0.8-0.2,1.6-0.4,2.4-0.5c0.5-0.1,0.6,0,0.7,0.5
			c0.5,1.7,0.8,3.4,0.6,5.2c-0.1,1.4,0.3,2.6,1.1,3.7c0.8,1.1,1.2,2.3,1.6,3.6c1,2.7,0.7,5.4,0.5,8.1c0,0.4-0.2,0.8-0.3,1.2
			c-0.1,0.5,0,0.5,0.5,0.5c2,0,4,0,6,0c0.6,0,1.3,0.1,1.9,0.2c0.1,0,0.2,0.1,0.3,0.2c-0.1,0.1-0.2,0.2-0.4,0.2
			c-0.6,0-1.2,0.1-1.8,0.1c-2,0-4,0-6,0.1c-0.2,0-0.4,0-0.6,0.1c-0.1,0-0.2,0.2-0.3,0.2c0.1,0.1,0.2,0.2,0.3,0.2
			c0.4,0,0.8,0,1.2,0.1c1.8,0.2,3.7,0.4,5.5,0.6c0.4,0,0.7,0.2,1,0.3c0.1,0,0.2,0.2,0.2,0.3c-0.1,0.1-0.2,0.2-0.3,0.2
			c-0.2,0-0.4,0-0.6,0c-1.7-0.2-3.4-0.4-5.1-0.6C47.5,28,46.6,28,45.7,28c-0.2,0-0.4,0.2-0.5,0.3c-0.7,1.5-1.9,2.5-3.1,3.5
			c-1.2,1-2.5,1.7-4,2.1c-1.2,0.4-2.4,0.7-3.7,1c-0.3,0.1-0.4,0.2-0.2,0.5c0.3,0.4,0.5,0.8,0.8,1.3c0.4,0.7,0.4,1.5,0.5,2.3
			c0.1,0.9,0.1,1.8,0.1,2.6c0,2,0,4,0.1,6.1c0,0.4,0,0.7,0.1,1.1c0.1,0.7,0.3,1.4,0.8,1.9c0.1,0.1,0.2,0.3,0.1,0.5
			c0,0.1-0.3,0.2-0.4,0.2c-1-0.1-2-0.3-2.9-0.7c-0.7-0.3-1-0.9-1-1.7c-0.1-1.1-0.1-2.3-0.1-3.4c0-1.6-0.1-3.2-0.1-4.7
			c0-0.2-0.1-0.4-0.2-0.6C31.8,40.3,31.8,40.3,31.7,40.3z M17.3,40c0.1-0.1,0.2-0.2,0.3-0.3c-0.1-0.1-0.2-0.2-0.3-0.2
			c-0.1,0-0.2,0.1-0.3,0.2C17.1,39.8,17.2,39.9,17.3,40z M16,39.7c-0.2-0.1-0.2-0.2-0.3-0.2c-0.1,0-0.2,0.1-0.3,0.2
			c0.1,0.1,0.2,0.2,0.2,0.2C15.7,39.9,15.8,39.8,16,39.7z M19.5,39.8c-0.2-0.1-0.3-0.2-0.3-0.2c-0.1,0-0.2,0.1-0.3,0.2
			c0.1,0.1,0.2,0.2,0.3,0.2C19.2,40,19.3,39.9,19.5,39.8z" fill="#ffffff"/>
		<path id="XMLID_42_" class="st0" d="M17.3,40c-0.1-0.1-0.2-0.2-0.3-0.3c0.1-0.1,0.2-0.2,0.3-0.2c0.1,0,0.2,0.2,0.3,0.2
			C17.6,39.8,17.5,39.9,17.3,40z"/>
		<path id="XMLID_41_" class="st0" d="M16,39.7c-0.2,0.1-0.3,0.2-0.4,0.2c-0.1,0-0.2-0.1-0.2-0.2c0.1-0.1,0.2-0.2,0.3-0.2
			C15.7,39.5,15.8,39.6,16,39.7z"/>
		<path id="XMLID_40_" class="st0" d="M19.5,39.8c-0.2,0.1-0.3,0.2-0.3,0.2c-0.1,0-0.2-0.1-0.3-0.2c0.1-0.1,0.2-0.2,0.3-0.2
			C19.3,39.6,19.3,39.7,19.5,39.8z"/>
	</g>
</g>
</svg>
