<?xml version="1.0" encoding="utf-8"?>
<!-- Generator: Adobe Illustrator 19.0.0, SVG Export Plug-In . SVG Version: 6.00 Build 0)  -->
<svg version="1.1" id="Capa_1" xmlns="http://www.w3.org/2000/svg" xmlns:xlink="http://www.w3.org/1999/xlink" x="0px" y="0px"
	 viewBox="187 -188.1 430.1 430.1" style="enable-background:new 187 -188.1 430.1 430.1;" xml:space="preserve">
<g>
	<path id="LinkedIn" d="M522.6,53v89.1h-51.7V59c0-20.9-7.5-35.2-26.2-35.2c-14.3,0-22.8,9.6-26.5,18.9c-1.4,3.3-1.7,7.9-1.7,12.6
		v86.8h-51.7c0,0,0.7-140.9,0-155.5h51.7v22c-0.1,0.2-0.2,0.3-0.3,0.5h0.3V8.7C423.4-1.9,435.7-17,463.1-17
		C497.1-17,522.6,5.2,522.6,53z M310.8-88.3c-17.7,0-29.3,11.6-29.3,26.9c0,14.9,11.2,26.9,28.6,26.9h0.3c18,0,29.2-11.9,29.2-26.9
		C339.3-76.7,328.4-88.3,310.8-88.3z M284.6,142.1h51.7V-13.3h-51.7V142.1z" fill="#ffffff"/>
</g>
</svg>
