<?xml version="1.0" encoding="utf-8"?>
<!-- Generator: Adobe Illustrator 19.0.0, SVG Export Plug-In . SVG Version: 6.00 Build 0)  -->
<svg version="1.1" id="Capa_1" xmlns="http://www.w3.org/2000/svg" xmlns:xlink="http://www.w3.org/1999/xlink" x="0px" y="0px"
	 viewBox="187 -188.1 430.1 430.1" style="enable-background:new 187 -188.1 430.1 430.1;" xml:space="preserve">
<style type="text/css">
	.st0{fill:#FFFFFF;}
</style>
<g>
	<path class="st0" d="M290.2,41.6c24.9,25,49.7,49.7,74.2,74.3c50-50,100.3-100.3,150.7-150.7c-2.8-2.8-5.9-5.9-9.5-9.4
		C458.4,3,411.2,50.2,363.2,98.1c-21.6-21.6-43.2-43.2-64.7-64.7C295.8,36.1,292.9,38.9,290.2,41.6z"/>
	<path d="M290.2,41.6c2.7-2.7,5.6-5.6,8.3-8.2c21.6,21.6,43.1,43.1,64.7,64.7c48-47.9,95.2-95.1,142.4-142.3
		c3.6,3.6,6.6,6.6,9.5,9.4C464.7,15.6,414.4,65.9,364.4,115.9C339.9,91.4,315.1,66.6,290.2,41.6z" fill="#ffffff"/>
</g>
</svg>
